PathFileType	4	(X/Y/Z)	W10_1_OpenSim.trc																																																																																																																						
DataRate	CameraRate	NumFrames	NumMarkers	Units	OrigDataRate	OrigDataStartFrame	OrigNumFrames																																																																																																																		
100	100	6	40	mm	100	376	3000																																																																																																																		
Frame#	Time	R.ASIS			R.PSIS			S2			L.PSIS			L.ASIS			R.TH1			R.TH2			R.TH3			R.MKnee			R.Knee			R.SH1			R.SH2			R.SH3			R.SH4			R.Ankle			R.MAnkle			R.Heel			R.MT5			R.MT1			L.TH1			L.TH2			L.TH3			L.TH4			L.MKnee			L.Knee			L.SH1			L.SH2			L.SH3			L.Ankle			L.MAnkle			L.Heel			L.MT5			L.MT1			R.Acr			L.Acr			C7			T10			Clav			Sternum			R.Back		
		X1	Y1	Z1	X2	Y2	Z2	X3	Y3	Z3	X4	Y4	Z4	X5	Y5	Z5	X6	Y6	Z6	X7	Y7	Z7	X8	Y8	Z8	X9	Y9	Z9	X10	Y10	Z10	X11	Y11	Z11	X12	Y12	Z12	X13	Y13	Z13	X14	Y14	Z14	X15	Y15	Z15	X16	Y16	Z16	X17	Y17	Z17	X18	Y18	Z18	X19	Y19	Z19	X20	Y20	Z20	X21	Y21	Z21	X22	Y22	Z22	X23	Y23	Z23	X24	Y24	Z24	X25	Y25	Z25	X26	Y26	Z26	X27	Y27	Z27	X28	Y28	Z28	X29	Y29	Z29	X30	Y30	Z30	X31	Y31	Z31	X32	Y32	Z32	X33	Y33	Z33	X34	Y34	Z34	X35	Y35	Z35	X36	Y36	Z36	X37	Y37	Z37	X38	Y38	Z38	X39	Y39	Z39	X40	Y40	Z40
376	3.75	986.2334	1074.217	-348.3882	789.6998	1072.2295	-436.2668	782.0987	1066.2616	-481.2717	781.0605	1071.1235	-531.1017	954.1896	1069.1016	-643.4648	986.3245	743.7808	-329.3668	905.5385	735.3494	-319.5968	916.6215	626.1372	-335.0275	948.9415	508.886	-464.4213	950.79	510.7801	-347.8793	953.5403	343.4039	-348.9548	950.9557	233.2747	-370.7085	871.895	343.9176	-336.5948	874.0752	231.006	-350.2074	885.0426	74.6594	-368.5287	922.4508	95.1247	-460.6702	827.9451	35.4099	-428.2106	999.7991	37.4957	-340.2768	1049.8953	40.5155	-428.4409	1028.2123	799.4706	-667.7237	1063.0262	696.3809	-671.3384	950.4437	770.339	-676.2264	988.2953	667.1583	-672.5203	1095.0342	534.2658	-559.4054	1075.4528	548.615	-675.6495	1003.2365	436.2207	-691.2089	944.1205	493.0124	-682.2066	870.9255	411.3846	-676.849	771.8118	232.1186	-683.0015	806.6179	217.3057	-587.7368	703.1622	251.1483	-622.8527	809.5833	120.5068	-703.142	852.7632	102.53	-605.5767	946.7455	1467.896	-329.9915	890.2083	1452.0635	-656.0698	858.2344	1506.6482	-487.9189	823.7528	1181.0075	-482.0704	993.9005	1410.892	-503.6248	1021.1227	1266.7933	-495.8096	794.9183	1411.7233	-390.1059
377	3.76	985.1094	1074.2288	-347.4974	788.3862	1072.5748	-435.7169	780.7919	1066.6384	-480.7268	779.7662	1071.5361	-530.5503	953.0755	1069.6628	-642.6451	981.5761	743.1927	-328.6367	900.6074	735.9222	-318.8798	910.2098	626.5668	-334.3889	941.1861	508.6604	-463.6759	942.7083	510.6516	-347.1016	944.6488	343.1935	-348.3859	941.5734	233.098	-370.3249	863.0733	344.0881	-335.9259	864.7109	231.2274	-349.7214	874.9974	74.6516	-368.5026	912.4568	95.1201	-460.6566	817.9286	35.4681	-428.2524	989.7933	37.4297	-340.1697	1039.8093	40.5094	-428.3367	1029.2235	802.4843	-667.5615	1065.3287	699.7133	-671.1589	951.7424	772.3109	-676.2861	991.0332	669.6121	-672.6253	1099.3964	537.989	-558.9398	1079.9303	551.9289	-675.108	1011.1397	437.0333	-690.5733	950.0598	491.6621	-681.4755	879.7839	407.5403	-675.9883	787.2004	224.4262	-682.0092	822.6707	211.1704	-586.7249	717.8348	240.5289	-621.7769	829.5776	114.2706	-701.9993	873.5439	98.418	-604.4609	946.5771	1468.6754	-329.6482	888.887	1452.1483	-655.4659	857.5903	1507.0797	-487.2996	822.9511	1181.4891	-480.9259	993.124	1411.2285	-503.2751	1020.1548	1267.0839	-495.2949	794.5692	1412.3458	-388.9396
378	3.77	983.9939	1074.0493	-346.7292	787.1229	1072.8125	-435.1663	779.5277	1066.8906	-480.1857	778.5192	1071.8151	-529.9973	951.9554	1069.965	-641.9199	976.8591	742.5564	-327.9906	895.7178	736.4108	-318.1844	903.851	626.9608	-333.7757	933.3481	508.4145	-462.9976	934.6681	510.4984	-346.3769	935.7799	342.9854	-347.8665	932.21	232.8986	-369.9875	854.2753	344.2523	-335.2788	855.3566	231.4493	-349.2364	864.9756	74.6416	-368.5022	902.4711	95.1094	-460.664	807.8672	35.5388	-428.3221	979.7814	37.3765	-340.0743	1029.7434	40.4857	-428.2165	1029.9755	805.1564	-667.4794	1067.1948	702.6499	-671.0214	952.7201	774.0238	-676.4242	993.3264	671.7637	-672.7664	1103.1611	541.3303	-558.5654	1083.8761	554.8731	-674.6113	1018.7995	437.4756	-690.0545	955.7137	489.706	-680.9013	888.6226	403.0461	-675.3406	803.1595	216.057	-681.2894	839.304	204.4434	-586.0041	733.1791	228.9904	-620.9419	850.3666	107.6807	-701.2084	895.1308	94.0288	-603.7157	946.4064	1469.2173	-329.3871	887.6419	1452.0465	-654.9469	856.9829	1507.3308	-486.7854	822.1476	1181.7899	-479.8956	992.3764	1411.3458	-503.0059	1019.1957	1267.1445	-494.8692	794.2074	1412.7961	-387.9009
379	3.78	982.9006	1073.6805	-346.0671	785.9214	1072.9413	-434.6159	778.3158	1067.0271	-479.6454	777.3271	1071.9707	-529.4429	950.8544	1070.0395	-641.2779	972.1964	741.865	-327.4733	890.9091	736.8134	-317.5167	897.5885	627.3042	-333.1769	925.4371	508.1486	-462.4004	926.6906	510.3154	-345.7172	926.9401	342.7824	-347.4004	922.8666	232.6864	-369.705	845.5063	344.4146	-334.6655	846.0154	231.6684	-348.7731	854.9855	74.6308	-368.5301	892.4902	95.0926	-460.6932	797.7611	35.6245	-428.419	969.7557	37.3332	-339.9915	1019.6988	40.4444	-428.0924	1030.4579	807.4484	-667.4611	1068.6221	705.1652	-670.9168	953.3806	775.4583	-676.6089	995.158	673.5876	-672.9216	1106.3362	544.2548	-558.2765	1087.2866	557.4143	-674.1636	1026.201	437.5429	-689.6598	961.1091	487.1434	-680.4923	897.4639	397.9432	-674.9149	819.6958	207.1221	-680.8608	856.5217	197.2234	-585.5968	749.2386	216.6906	-620.3709	871.8711	100.8743	-700.7822	917.4306	89.4768	-603.3624	946.2447	1469.5216	-329.211	886.4654	1451.7626	-654.5163	856.4147	1507.4019	-486.3739	821.3541	1181.9152	-478.9814	991.6619	1411.2465	-502.8183	1018.2618	1266.9835	-494.5336	793.8381	1413.076	-386.9954
380	3.79	981.8478	1073.1342	-345.494	784.791	1072.9609	-434.0754	777.1655	1067.0548	-479.1121	776.1952	1072.0124	-528.8979	949.7932	1069.9154	-640.7112	967.6182	741.1148	-327.1118	886.2274	737.1291	-316.8729	891.4633	627.5815	-332.5876	917.4818	507.8593	-461.8834	918.7961	510.1013	-345.1287	918.1383	342.5836	-346.9875	913.5429	232.4738	-369.4777	836.7792	344.576	-334.0908	836.6985	231.8806	-348.3436	845.0331	74.6191	-368.5782	882.5101	95.0692	-460.7403	787.6222	35.7214	-428.5343	959.713	37.2955	-339.9197	1009.6757	40.3901	-427.9757	1030.6521	809.319	-667.4901	1069.6135	707.2335	-670.8366	953.7372	776.5927	-676.8116	996.5153	675.0611	-673.0686	1108.9287	546.7303	-558.0745	1090.1521	559.5231	-673.7686	1033.3219	437.2361	-689.3952	966.2565	483.9856	-680.2516	906.3243	392.2754	-674.7113	836.8135	197.7369	-680.7391	874.3138	189.609	-585.5179	766.0438	203.7903	-620.0888	894.0212	93.9846	-700.726	940.3445	84.8834	-603.4184	946.0998	1469.594	-329.1209	885.3497	1451.3048	-654.178	855.885	1507.2969	-486.0629	820.5827	1181.8707	-478.1873	990.9843	1410.9395	-502.7123	1017.3704	1266.6147	-494.2865	793.4686	1413.1857	-386.2267
381	3.8	980.85	1072.4281	-344.9972	783.7393	1072.875	-433.5625	776.086	1066.9813	-478.6015	775.1296	1071.9495	-528.3796	948.7885	1069.6146	-640.2169	963.1514	740.3028	-326.9172	881.7145	737.3544	-316.2468	885.5071	627.781	-332.0098	909.5214	507.5424	-461.4365	911.0066	509.8561	-344.6137	909.3866	342.3852	-346.6255	904.2426	232.2685	-369.2977	828.1071	344.7385	-333.5576	827.4229	232.0826	-347.9515	835.1151	74.6067	-368.6333	872.5316	95.0387	-460.7987	777.4713	35.8216	-428.6522	949.6547	37.2585	-339.857	999.6699	40.3313	-427.8743	1030.5408	810.7353	-667.548	1070.1777	708.8315	-670.7718	953.8089	777.4014	-677.006	997.3898	676.1625	-673.1853	1110.9459	548.728	-557.9623	1092.4567	561.1729	-673.426	1040.1389	436.5643	-689.2673	971.1531	480.2556	-680.1755	915.2145	386.0884	-674.7226	854.5154	188.0239	-680.9363	892.6526	181.7065	-585.7745	783.6138	190.4471	-620.1225	916.7658	87.1462	-701.0391	963.7797	80.3774	-603.8857	945.9756	1469.445	-329.1157	884.2905	1450.6849	-653.9365	855.3926	1507.0243	-485.8511	819.8463	1181.6627	-477.5172	990.3498	1410.4393	-502.6862	1016.5415	1266.0581	-494.1241	793.1064	1413.1245	-385.5966
